<svg width="47" height="66" viewBox="0 0 47 66" fill="none" xmlns="http://www.w3.org/2000/svg">
<path d="M6.99379 35.4429C6.90033 35.0364 6.91313 34.4888 6.96685 34.0725C6.98339 33.9426 7.09285 34.0023 7.10925 33.9119C7.14145 33.7358 7.08254 33.5768 7.12559 33.4029C7.14043 33.3457 7.31066 33.4103 7.32242 33.3507C7.38586 33.0228 7.33786 32.7186 7.37361 32.3873C7.5526 30.7654 7.74855 29.1779 8.17598 27.5694C8.24906 27.2959 8.36922 26.9998 8.48553 26.7036C8.593 26.4306 8.6954 26.1553 8.74914 25.8866C8.76202 25.8217 8.6098 25.813 8.60215 25.7973C8.48819 25.5499 8.74977 25.7067 8.82867 25.5981C9.14199 25.1663 9.36348 24.6523 9.51919 24.1829C9.58545 23.9832 9.23102 24.0483 9.47066 23.927C9.487 23.9186 9.60516 24.0341 9.645 23.9898C9.68327 23.9471 9.72026 23.8806 9.755 23.8119C9.80997 23.7025 9.86384 23.5941 9.90474 23.5388C10.0419 23.3588 10.0615 23.3275 10.1862 23.1573C10.3612 22.9246 10.6445 22.727 10.8385 22.5016C10.8803 22.4526 10.7084 22.3918 10.7677 22.3015C10.8269 22.2096 11.0491 22.0454 11.1441 22.0226C11.2391 21.9983 11.2836 22.1228 11.3135 22.1365C11.5573 22.2567 11.6051 21.8172 11.6366 21.7883C12.1524 21.2893 12.757 21.2166 13.2857 20.9655C13.6902 20.7746 14.0819 20.5248 14.4358 20.3531C14.7645 20.1945 15.0629 20.0886 15.3389 19.9251C15.4401 19.8634 15.5423 19.8013 15.647 19.7363C15.6974 19.7055 15.5422 19.5772 15.6052 19.5386C16.279 19.1274 17.0267 18.8994 17.7544 18.8621C17.8269 18.8587 17.7748 19.0406 17.8486 19.0472C18.3069 19.0793 18.9905 19.3065 19.1465 18.561C19.4356 18.5515 19.7818 18.5438 20.0455 18.6648C20.2155 18.7428 20.077 18.9368 20.2657 18.8423C20.3084 18.8213 20.2367 18.669 20.3021 18.6493C20.5785 18.5667 20.8897 18.5941 21.1589 18.4927C21.2141 18.4717 21.1886 18.3316 21.2028 18.305C21.3217 18.0894 21.5703 18.4145 21.6186 18.4361C22.0001 18.5956 22.262 18.5059 22.6037 18.4883C22.683 18.4843 22.577 18.3005 22.6529 18.2898C22.7945 18.271 22.9318 18.2578 23.0758 18.2507C23.3207 18.239 23.566 18.2431 23.8068 18.27C23.8899 18.2795 23.8344 18.4492 23.8755 18.462C24.0582 18.5153 24.0556 18.2068 24.2266 18.2488C24.2629 18.2571 24.2641 18.3971 24.2727 18.4112C24.4085 18.6327 24.4421 18.2837 24.4652 18.2722C24.7629 18.118 25.0348 18.4238 25.3345 18.3023C25.3696 18.2874 25.247 18.1363 25.3472 18.1049C26.0139 17.8946 26.7222 17.7057 27.4294 17.5627C27.5387 17.5404 27.5176 17.6921 27.5301 17.7045C27.7339 17.8945 27.6696 17.5515 27.6966 17.5258C27.9183 17.3293 28.2827 17.474 28.2823 17.0247C28.4964 16.9512 28.7047 16.8622 28.9096 16.7641C29.764 16.3556 30.4373 15.7415 31.3215 15.2823C31.3354 15.2745 31.4332 15.4134 31.4606 15.3971C31.7886 15.2025 31.552 15.0689 31.4881 14.6752C31.4711 14.5771 31.8811 14.7024 31.9138 14.7089C32.0312 14.7357 32.1692 14.9527 32.1978 14.9517C32.4317 14.9354 31.8036 14.3948 31.9936 14.2053C32.0004 14.2006 32.0815 14.3334 32.1078 14.3289C32.1891 14.3159 32.2019 14.2212 32.2966 14.2106C32.4042 14.1986 32.5368 14.2586 32.6468 14.2986C32.7508 14.3473 32.82 14.3632 32.889 14.2123C32.9273 14.1777 32.6545 13.73 33.0959 13.6841C33.1502 13.6837 33.2312 13.6754 33.3851 13.7046C33.5422 13.7337 33.7546 13.8303 33.9001 13.9989C34.1732 14.34 34.1368 14.5728 34.1408 14.6673C34.1193 14.8293 33.9627 14.7231 33.9571 14.7367C33.7527 15.1047 33.6677 14.9359 33.36 15.0474C33.0504 15.1194 33.7449 15.2115 33.8096 15.289C33.8725 15.3768 33.6635 15.5362 33.5926 15.5747C33.5243 15.6068 33.4483 15.5226 33.4057 15.5551C33.1224 15.7702 33.7027 15.7781 33.7791 15.9086C33.9573 16.2173 33.4033 16.2217 33.2819 16.3989C33.2492 16.4463 33.3761 16.4457 33.3687 16.4961C33.3364 16.6973 33.141 16.7488 33.1913 17.0151C33.1989 17.0601 33.4157 17.3501 33.1568 17.3697C33.1197 17.3721 33.0201 17.2764 32.9594 17.3431C32.8692 17.4413 32.7507 17.6371 32.7339 17.7777C32.7217 17.8816 32.9635 17.8663 32.8506 17.9533C32.8002 17.9919 32.7302 17.8454 32.6452 17.922C32.56 17.9991 32.4527 18.2407 32.4124 18.3349C32.3727 18.4284 32.5428 18.448 32.5491 18.4601C32.5843 18.5316 32.57 18.7414 32.5622 18.7569C32.1994 19.5507 31.5916 20.1354 31.2798 20.9225C31.2551 20.9841 31.4267 21.0247 31.4245 21.035C31.3829 21.2672 31.0653 20.8963 30.8562 20.9668C31.1735 21.1079 31.0729 21.1642 31.0335 21.3194C31.0146 21.3948 31.1521 21.4219 31.1611 21.4342C31.2861 21.6334 31.0172 21.5783 30.9603 21.5707C30.7519 21.5406 30.9174 21.7277 30.7768 21.7099C30.6369 21.6929 30.5198 21.4987 30.4512 21.6324C30.5411 21.7275 30.8788 21.7831 30.8723 21.9069C30.8661 21.9944 30.8405 22.0872 30.8062 22.1736C30.6512 22.5604 30.259 23.0272 30.1278 23.2836C29.969 23.5935 29.9486 23.7059 29.8297 23.878C29.6157 24.188 29.8896 24.1533 29.9048 24.4077C29.9197 24.6621 29.4142 24.3347 29.284 24.317C29.1541 24.2988 29.2617 24.3814 29.1818 24.3918C29.102 24.4022 29.0549 24.2894 28.9949 24.3663C28.935 24.4435 29.0453 24.7674 29.1547 24.8502C29.387 25.0246 29.7056 25.0307 29.5112 25.2237C29.4998 25.2347 29.375 25.1305 29.3388 25.1755C29.0564 25.5339 28.8627 25.9506 28.5741 26.2995C28.5343 26.3472 28.4026 26.2226 28.3777 26.2493C28.1173 26.5241 28.4365 26.5372 28.6302 26.8685C28.2685 26.6282 27.9853 26.6051 27.853 26.8393C27.7721 26.9804 27.9498 27.0483 28.011 27.2081C28.0293 27.2567 27.858 27.292 27.923 27.3556C28.134 27.5657 28.4725 27.6371 28.2044 27.8233C28.1923 27.831 28.0802 27.7116 28.0483 27.7441C27.8395 27.9521 28.0739 28.1487 27.9135 28.4349C27.8668 28.5169 27.778 28.6042 27.6741 28.6878C27.5263 28.7927 27.3456 28.9191 27.2506 29.0433C26.8372 28.787 26.8028 29.0722 27.0598 29.3086C26.9732 29.4479 26.9164 29.618 26.8111 29.7489C26.775 29.7944 26.6596 29.7064 26.6429 29.707C26.3802 29.7183 26.6539 29.9114 26.6527 29.9492C26.6241 30.3628 26.2866 30.5928 26.3862 31.0413C26.3899 31.0572 26.7009 31.189 26.4339 31.2077C26.4157 31.2085 26.3135 31.0358 26.2415 31.2061C26.1692 31.3779 25.8826 31.6431 25.9321 31.941C25.9446 32.0121 26.1362 32.2682 25.8876 32.3046C25.8541 32.309 25.7728 32.2535 25.7137 32.2547C25.5253 32.2583 25.8186 32.4373 25.5163 32.4023C25.2135 32.3675 24.9457 32.4314 25.0035 32.7426C25.005 32.7518 25.2127 32.9352 25.168 33.0044C25.0971 33.1146 24.9528 33.2411 24.8792 33.353C24.8438 33.407 25.0056 33.467 25.0018 33.478C24.9698 33.556 24.932 33.6248 24.8889 33.688C24.6922 33.9712 24.4096 34.1118 24.0766 34.3035C24.0064 34.3445 23.9206 34.6831 23.6785 34.6124C23.4221 34.5276 23.1827 33.7299 22.9614 34.056C22.8836 34.1789 23.0526 35.2403 22.5875 34.8209C22.0722 35.1225 21.4921 34.9451 20.9471 35.2119C20.9226 35.2237 20.8771 35.5236 20.8143 35.5274C20.7213 35.5324 20.6546 35.4031 20.5884 35.4018C20.3102 35.3926 20.0712 35.5336 19.8047 35.5415C19.7037 35.5448 19.7252 35.4012 19.6047 35.405C19.4843 35.4089 19.4226 35.6012 19.2519 35.5282C19.1768 35.4958 19.091 35.359 18.9987 35.245C18.9967 35.2451 18.9907 35.246 18.9887 35.2462C18.9167 35.167 18.8385 35.1012 18.762 35.096C18.8202 35.4657 18.7047 35.4765 18.5321 35.618C18.4993 35.6454 18.5688 35.7627 18.5551 35.7821C18.501 35.8638 18.41 35.7756 18.3618 35.8638C18.3502 35.885 18.3822 36.0086 18.3749 36.0329C18.3152 36.2431 18.0539 36.0199 18.0068 35.9816C17.8308 35.8351 17.8198 36.0116 17.7039 35.9675C17.5886 35.9233 17.7035 35.7925 17.5808 35.7809C17.551 35.7781 17.521 35.777 17.4905 35.7773C17.2615 35.7791 17.0095 35.8653 16.8014 35.9242C16.708 35.9514 16.8218 36.0946 16.8096 36.1023C16.6331 36.202 16.3819 36.0949 16.3879 36.4517C15.971 35.667 16.3024 36.5702 15.9781 36.5C15.9526 36.4941 15.7835 36.1138 15.8445 36.027C15.907 35.9397 16.0752 36.0177 16.1594 35.8884C16.1775 35.8584 16.2137 35.4357 16.2283 35.4062C16.345 35.1739 16.5591 35.7575 16.5778 35.7871C16.7886 36.1055 16.8568 35.6471 16.9017 35.604C17.0576 35.4488 17.2308 35.4347 17.3724 35.3646C17.4103 35.3459 17.4466 35.323 17.4808 35.2923C17.5875 35.1974 17.4849 34.8039 17.5882 34.7866C17.9428 34.727 18.2006 35.2394 18.4424 34.6818C18.4978 34.5639 18.3314 34.1405 18.6925 34.4301C18.7054 34.4408 18.8012 34.5376 18.895 34.5786C18.9017 34.578 18.9219 34.5747 18.9287 34.5744C18.9877 34.6078 19.0479 34.6096 19.0847 34.5199C19.0956 34.4932 19.0822 34.3644 19.0989 34.3518C19.2111 34.2699 19.3004 34.3647 19.4236 34.3031C19.547 34.2415 19.6924 34.1534 19.8399 34.1829C19.9286 34.2004 20.0632 34.4291 20.1104 34.4835C20.2446 34.6405 20.3376 34.3499 20.4316 34.5464C20.5275 34.7437 20.4203 35.0726 20.6279 35.1831C20.5955 34.8483 20.5708 34.5037 20.5415 34.1666C20.9449 34.1301 21.3456 34.1808 21.7146 34.0859C21.7598 34.0739 21.675 33.9074 21.7213 33.89C21.9144 33.8173 22.1184 33.8969 22.2956 33.786C22.4325 33.6992 22.5141 33.4632 22.6177 33.363C22.8565 33.6787 23.0011 33.459 23.1383 33.409C23.1884 33.3907 23.2428 33.4777 23.2938 33.4833C23.4859 33.4982 23.2274 33.2646 23.2243 33.2004C23.1926 32.9336 23.7042 33.513 23.8521 33.3373C23.8639 33.325 23.6446 32.9551 23.6312 32.9297C23.5664 32.7459 23.7525 33.0078 23.8188 32.9729C23.8388 32.962 23.8591 32.9522 23.8791 32.9425C23.9894 32.8803 24.0909 32.8253 24.0867 32.6445C24.086 32.5793 23.9286 32.3463 24.1493 32.3565C24.1784 32.3575 24.2931 32.4303 24.3055 32.4244C24.5198 32.3092 24.1441 32.1039 24.0634 31.9432C23.982 31.7835 24.3202 31.7493 24.4134 31.7472C24.6534 31.7458 24.469 31.8536 24.4863 31.8667C24.6936 32.0294 24.7098 31.8881 24.7712 31.7989C25.1614 31.9497 25.1982 31.7961 24.8331 31.7054C24.7932 31.6957 24.7972 31.7869 24.7712 31.7989C24.4312 31.5518 24.4389 31.396 24.862 31.3616C25.0603 31.3444 25.2279 31.4966 25.249 31.217C25.2582 31.0901 24.9716 31.0371 24.9337 30.9098C24.8468 30.6203 25.2059 30.3972 25.2556 30.1284C25.2737 30.0308 25.0934 30.0687 25.1008 29.9999C25.1207 29.8159 25.2867 29.7048 25.2977 29.5078C25.2986 29.4897 25.1296 29.4697 25.1491 29.4135C25.2971 28.9841 25.5592 28.6419 25.829 28.19C25.9254 28.0279 26.0536 27.7421 26.2073 27.5216C26.2384 27.4723 26.2696 27.4276 26.3013 27.3934C26.5116 27.169 26.9339 26.9561 27.0298 26.6744C27.0919 26.4929 26.9274 26.447 26.8684 26.3231C26.7517 26.0872 27.2223 26.0289 27.2941 26.0201C27.2966 26.02 27.2551 26.1842 27.3708 26.1451C27.5512 26.1803 27.2941 26.0219 27.2941 26.0201C27.3405 26.017 27.5224 25.7359 27.5222 25.6615C27.5223 25.6215 27.3727 25.5722 27.3754 25.5528C27.4404 25.093 27.5828 24.6671 27.8305 24.2642C27.8366 24.2578 27.993 24.3367 28.0053 24.3207C28.1817 24.0998 28.0509 23.8547 28.0192 23.5965C27.9879 23.3374 28.0964 23.1836 28.4264 23.1692C28.4576 22.9931 28.678 22.8076 28.8095 22.7034C28.9413 22.5985 28.6368 22.4465 28.6359 22.4312C28.6041 21.964 28.8802 21.8181 29.118 21.4181C29.1373 21.3861 29.1579 21.3481 29.1796 21.306C29.2698 21.1292 29.3798 20.8395 29.4304 20.6783C29.4829 20.5158 29.597 20.4707 29.624 20.3107C29.6277 20.2891 29.484 20.2369 29.4818 20.2286C29.4006 19.9943 29.6896 20.2397 29.7644 20.2398C30.0347 20.2425 30.1874 20.2275 30.1856 19.987C30.1855 19.9313 29.7812 19.5538 29.7938 19.4616C29.8124 19.3398 29.9617 19.467 29.9773 19.336C29.9787 19.325 29.8733 19.2723 29.9124 19.2077C30.0926 18.9071 30.3265 18.5974 30.4765 18.2675C30.4974 18.2228 30.3018 18.1966 30.329 18.1307C30.4569 17.8219 30.6211 17.4972 30.8355 17.2444C30.8889 17.1821 30.9867 17.2822 31.0292 17.283C31.2877 17.285 31.0394 17.0065 31.0432 16.9822C31.1315 16.3887 31.5956 16.0932 31.642 15.5309C31.6455 15.4966 31.3666 15.181 31.6916 15.1892C31.7133 15.19 32.0482 15.1935 31.8558 15.0617C31.8434 15.0546 31.6714 15.0586 31.7093 14.9801C31.7471 14.9037 31.6593 14.7708 31.8388 14.7824C31.8675 14.784 31.9615 14.787 32.0169 14.8033C32.0763 14.8237 32.0764 14.8372 32.0073 15.0499C32.0188 15.0657 31.8526 15.2695 32.1356 15.7162C32.4338 16.176 33.0761 16.3081 33.1571 16.094C33.1739 16.0278 33.2756 15.6135 33.4177 15.7924C33.4459 15.8274 33.4477 15.9263 33.5056 15.9684C33.533 15.9961 33.5364 15.9982 33.5198 16.0103C33.7842 15.8636 33.6969 15.8968 33.7507 16.0154C33.7629 16.0496 33.9069 16.3108 33.6797 16.2347C33.6442 16.2227 33.5631 16.1035 33.5144 16.132C33.2814 16.2688 33.1262 16.573 32.8342 16.7249C32.7294 16.7803 32.6115 16.5769 32.4865 16.6134C32.3614 16.6503 32.1535 16.7644 32.1323 16.9227C32.1102 17.0818 32.4534 17.263 32.3299 17.4102C31.7821 18.0562 30.9611 18.3709 30.2246 18.7359C30.1153 18.7897 30.2672 18.8561 30.1064 18.9438C30.0881 18.9537 30.0694 18.9639 30.0502 18.9744C29.5188 19.2721 28.6244 19.8015 28.0294 19.7439C27.5458 19.6959 27.9892 19.3424 27.6524 19.3767C27.4926 19.3923 27.476 19.847 27.443 19.8729C27.128 20.1282 26.8147 20.0324 26.5009 20.1832C26.4354 20.2144 26.5501 20.3595 26.4933 20.3842C26.2985 20.4704 26.0649 20.4523 25.8729 20.5123C25.7868 20.5395 25.8325 20.663 25.7486 20.6718C25.5483 20.694 25.363 20.6762 25.1512 20.5914C25.1323 20.5835 25.2171 20.4024 25.0742 20.4229C24.8418 20.4564 24.5409 20.3821 24.2936 20.5399C24.2207 20.587 24.2528 20.8844 24.0583 20.6995C24.0174 20.6606 24.0242 20.3 23.8609 20.6286C23.8361 20.6836 23.5354 21.1313 23.3513 20.8735C23.3277 20.8403 23.2843 20.7547 23.236 20.6821C23.1892 20.6067 23.1373 20.5456 23.0948 20.5718C23.0836 20.58 23.141 20.7369 23.0704 20.7572C22.8234 20.8258 22.5562 20.8258 22.3048 20.8926C22.2365 20.9108 22.3502 21.0696 22.2484 21.0915C21.972 21.1516 21.6195 21.1329 21.347 21.1007C21.2461 21.0885 21.3048 20.9464 21.2965 20.932C21.1626 20.6979 21.1182 21.0306 21.0812 21.0527C20.8531 21.1851 20.6593 21.0463 20.4472 21.1064C20.3893 21.1225 20.4453 21.2747 20.4348 21.2896C20.3253 21.4368 20.3903 21.1483 20.3097 21.1247C20.0861 21.0576 19.8459 21.0956 19.6371 21.1413C19.56 21.1584 19.6695 21.3278 19.6008 21.3411C19.1965 21.4229 18.793 21.47 18.4161 21.4522C18.3453 21.4485 18.3561 21.3028 18.335 21.2748C18.1846 21.0797 18.1162 21.4118 18.0945 21.448C17.9894 21.6138 17.9037 21.5105 17.7914 21.5705C17.4472 21.7579 17.0944 21.9111 16.781 22.0882C16.4448 22.2934 16.121 22.4507 15.8392 22.5796C14.8346 23.0321 14.086 23.1792 13.3983 23.5944C13.3555 23.6203 13.4889 23.7591 13.454 23.7831C13.0036 24.0819 12.6031 24.2889 12.4083 24.597C12.3927 24.6214 12.5522 24.7061 12.534 24.7467C12.4986 24.8303 12.4334 24.9048 12.3422 24.9477C12.2973 24.9701 12.1969 24.8426 12.153 24.8696C12.1145 24.8938 12.0813 24.9233 12.0537 24.9584C11.9876 25.0569 11.9372 25.1657 11.9044 25.2785C11.8827 25.355 12.0958 25.3236 12.0554 25.4162C11.7849 26.0506 11.5902 26.6858 11.1668 27.3234C11.147 27.3533 10.9703 27.3362 10.8727 27.3627C10.8277 27.3741 10.7998 27.3947 10.8125 27.4329C10.9087 27.4671 11.0243 27.4977 11.1284 27.5292C10.9207 28.5307 10.6341 29.5436 10.5294 30.6161C10.5251 30.6613 10.7247 30.5984 10.7175 30.6856C10.6767 31.1879 10.7104 31.678 10.5129 32.1979C10.4937 32.2496 10.1519 32.2212 10.2032 32.3762C10.2123 32.403 10.2589 32.6379 10.3341 32.6961C10.3454 32.7041 10.5043 32.6601 10.5099 32.7344C10.5398 33.1669 10.5213 33.6213 10.4518 34.0631C10.4403 34.1349 10.266 34.0704 10.2564 34.1217C10.1896 34.4862 10.3513 34.8637 10.2333 35.2216C10.1541 35.4622 9.85351 35.4092 9.57987 35.5645C9.54121 35.5865 9.55145 35.7325 9.38548 35.7599C8.96796 35.829 8.49973 35.81 8.05565 35.892C7.95984 35.9094 8.08825 36.1029 7.84079 36.0088C7.82411 36.0021 7.72933 35.8617 7.6462 35.8338C7.58864 35.8143 7.42399 35.88 7.34809 35.8352C7.27226 35.7902 7.4083 35.7168 7.31665 35.6374C7.22414 35.5583 7.03445 35.617 6.99379 35.4429ZM29.4074 22.2342C29.6132 22.1777 29.0801 21.9056 29.1459 22.1045C29.1498 22.1144 29.3971 22.2374 29.4074 22.2342ZM21.4147 34.6187C21.6245 34.85 21.6605 34.4466 21.5113 34.268C21.3666 34.0882 21.3527 34.5482 21.4147 34.6187ZM19.6992 35.0242C19.9204 35.2115 19.8682 34.3643 19.671 34.5559C19.6595 34.5668 19.6863 35.0133 19.6992 35.0242ZM9.43878 34.9932C9.43098 34.9957 9.43321 35.1015 9.44134 35.1033C9.63571 35.1408 9.63122 34.9304 9.43878 34.9932ZM17.9295 35.5495C18.0219 35.6419 18.1635 35.4647 18.0483 35.3488C17.9539 35.2558 17.8131 35.4346 17.9295 35.5495ZM33.0069 16.3007C33.0161 16.3018 33.051 16.2315 33.0032 16.2155C32.8494 16.1636 32.8544 16.2801 33.0069 16.3007ZM15.0418 36.5135C15.4744 36.3787 15.9701 36.9421 15.4938 37.0389C15.407 37.0569 15.5891 36.7629 15.4626 36.7438C15.23 36.7099 15.2638 37.1692 14.984 37.0268C14.9329 37.0006 15.0161 36.5198 15.0422 36.5123C15.0421 36.5127 15.042 36.5131 15.0418 36.5135ZM30.0926 22.4639C30.1007 22.4651 30.1527 22.3717 30.1468 22.366C30 22.2319 29.8939 22.4224 30.0926 22.4639ZM31.2363 15.5909C31.221 15.583 31.0338 15.733 31.0381 15.749C31.1502 16.0673 31.5399 15.7557 31.2363 15.5909ZM27.2375 29.04C27.3478 29.2285 27.3132 29.3401 27.0602 29.3083C27.1203 29.2185 27.1734 29.1253 27.2375 29.04Z" fill="#294D29"/>
<path d="M16.9849 43.8124C16.9584 43.406 17.0962 42.8903 17.2604 42.5359C17.3111 42.425 17.4002 42.508 17.4402 42.4346C17.4663 42.3865 17.4824 42.3386 17.4961 42.2891C17.5532 42.0798 17.6216 41.8787 17.7441 41.7165C17.8051 41.6382 17.8964 41.8222 17.9549 41.7441C18.2769 41.3308 18.526 41.0438 18.8202 40.8424C19.8896 40.1802 20.69 39.9657 21.3558 39.5772C21.6629 39.3955 21.9797 39.2392 22.3023 39.1051C22.7274 38.9267 23.2883 38.8776 23.6934 38.6845C23.7414 38.6614 23.6683 38.5297 23.6743 38.5151C23.7738 38.2908 23.8085 38.5912 23.918 38.6006C24.3471 38.6395 24.7733 38.555 25.1345 38.4273C25.2871 38.373 25.0745 38.1153 25.2647 38.2468C25.2778 38.2557 25.2662 38.417 25.3124 38.4255C25.4165 38.4443 25.5995 38.3846 25.6759 38.385C25.825 38.3861 25.8487 38.3809 25.9869 38.3623C26.1776 38.3382 26.4081 38.3865 26.6056 38.3277C26.6477 38.3147 26.5719 38.162 26.6379 38.1269C26.7048 38.0916 26.8877 38.0855 26.953 38.1171C27.0182 38.1485 27.0046 38.2766 27.0183 38.3043C27.1305 38.538 27.3074 38.1824 27.3341 38.1718C27.8137 37.9868 28.2489 38.1523 28.7046 38.1291C29.0511 38.1111 29.4186 38.0339 29.7477 38.0328C30.1388 38.0322 30.4707 38.1119 30.8477 38.0897C30.8875 38.0876 30.8372 37.8998 30.8859 37.8968C31.4 37.8651 31.9124 37.878 32.4206 37.9937C32.472 38.0055 32.41 38.1726 32.4616 38.1942C32.7737 38.3237 33.2788 38.6343 33.4345 37.9051C33.6411 37.9246 33.8948 37.9401 34.085 38.0729C34.2084 38.1581 34.1047 38.3464 34.2482 38.2588C34.2803 38.2392 34.2253 38.0849 34.2738 38.0674C34.4748 37.9941 34.7048 38.0239 34.8892 37.9191C34.9263 37.8975 34.8981 37.7583 34.9058 37.7316C34.9737 37.5154 35.1727 37.8313 35.2104 37.8502C35.4951 37.9923 35.6726 37.8819 35.8846 37.8279C35.9328 37.8153 35.8239 37.6487 35.8683 37.6299C36.074 37.5448 36.2525 37.4792 36.393 37.4583C36.4174 37.4503 36.442 37.4428 36.4674 37.4352C36.5221 37.4191 36.5776 37.5793 36.6093 37.5777C36.7526 37.5643 36.5835 37.3075 36.7122 37.2866C36.7395 37.2813 36.8186 37.396 36.8319 37.4048C37.0431 37.5393 36.869 37.2404 36.8766 37.2236C36.9885 36.9871 37.3077 37.1532 37.5227 36.8896C37.5746 36.8412 37.3053 36.8238 37.5113 36.6624C37.5692 36.6378 37.5567 36.5855 37.8733 36.5332C37.9981 36.5191 38.1113 36.5081 38.3004 36.5425C38.4691 36.5699 38.7992 36.7027 38.9678 37.014C39.1329 37.3303 39.0937 37.5494 39.0727 37.7017C39.0451 37.8526 39.0011 37.964 38.959 38.0571C38.7795 38.4314 38.5735 38.6482 38.352 38.8615C38.2821 38.9268 38.21 38.7978 38.1932 38.7937C37.9298 38.73 38.1775 38.9695 38.1706 39.002C38.1092 39.2513 37.7536 39.2528 37.9841 39.6219C37.2851 40.3237 36.8723 41.1894 36.0458 41.7332C36.0356 41.7404 35.9105 41.627 35.8907 41.6418C35.6501 41.8238 35.8957 41.9274 36.0622 42.253C36.106 42.3317 35.7072 42.2428 35.6765 42.2394C35.5644 42.2231 35.377 42.0522 35.3518 42.0546C35.1504 42.0816 35.8623 42.4958 35.7894 42.6247C35.7859 42.6282 35.6633 42.5365 35.6439 42.5404C35.6416 42.5409 35.6394 42.5414 35.6374 42.542C35.5826 42.5618 35.6087 42.626 35.544 42.6391C35.3892 42.6693 35.0195 42.5101 35.1492 42.7597C35.1664 42.7917 35.5919 42.9875 35.4987 43.1141C35.4611 43.1641 35.3397 43.4104 35.2774 43.4647C35.2149 43.5191 35.1058 43.4025 35.0974 43.4043C34.8243 43.4976 34.7877 43.389 34.4769 43.3478C34.167 43.3078 34.8041 43.6018 34.8543 43.6754C34.9045 43.7484 34.6881 43.8111 34.6202 43.819C34.5521 43.8268 34.4879 43.7416 34.4439 43.757C34.1542 43.8618 34.7105 44.0011 34.777 44.1165C34.9356 44.388 34.4106 44.2764 34.2943 44.3968C34.263 44.4292 34.3847 44.4502 34.3777 44.4893C34.3487 44.6439 34.1631 44.6541 34.2209 44.8745C34.2304 44.9102 34.4501 45.1729 34.2045 45.1533C34.1692 45.1503 34.0686 45.0609 34.0142 45.1063C33.9326 45.1744 33.831 45.3186 33.8244 45.431C33.8197 45.5139 34.0502 45.5282 33.9481 45.5863C33.9026 45.612 33.8253 45.4856 33.7493 45.5385C33.6735 45.5907 33.5882 45.7779 33.5577 45.8497C33.5271 45.9219 33.6914 45.9549 33.6984 45.9654C33.7375 46.0274 33.7413 46.1964 33.735 46.2085C33.454 46.8208 32.9297 47.2479 32.6812 47.863C32.6613 47.9113 32.8264 47.9667 32.8249 47.9749C32.7972 48.1656 32.475 47.8164 32.2821 47.8452C32.5898 48.0055 32.4994 48.0362 32.4674 48.1632C32.4521 48.2245 32.5839 48.2658 32.5928 48.2776C32.7202 48.4608 32.462 48.3777 32.408 48.3626C32.2085 48.3085 32.3728 48.487 32.239 48.4506C32.1067 48.4138 31.9912 48.2326 31.9301 48.3329C32.0164 48.4281 32.3376 48.5278 32.3321 48.6336C32.3312 48.6515 32.3291 48.6695 32.3259 48.6874C32.2459 49.1087 31.6249 49.4477 31.4064 49.6013C31.1751 49.7748 31.1155 49.8475 30.9568 49.9144C30.67 50.0275 30.8997 50.1559 30.8054 50.356C30.7061 50.5556 30.4579 50.009 30.3655 49.9178C30.2751 49.8251 30.3241 49.9494 30.2602 49.9074C30.197 49.8648 30.2052 49.757 30.1317 49.7727C30.0597 49.7883 30.0108 50.0814 30.0529 50.2102C30.1456 50.4818 30.3756 50.692 30.1452 50.7026C30.132 50.7029 30.0893 50.5486 30.0428 50.5565C29.6781 50.6218 29.3515 50.7695 28.9949 50.8061C28.9461 50.8107 28.9169 50.6351 28.888 50.6358C28.5878 50.6407 28.7921 50.8716 28.7636 51.2318C28.6388 50.817 28.4631 50.6039 28.2674 50.6735C28.1484 50.7152 28.2331 50.8848 28.1991 51.0379C28.1887 51.0841 28.0602 50.9918 28.0735 51.0808C28.1152 51.3725 28.3031 51.6521 28.0458 51.6017C28.0344 51.599 28.0147 51.4385 27.9792 51.4401C27.7507 51.4484 27.817 51.7453 27.5958 51.8504C27.4219 51.933 27.0496 51.8452 26.8374 51.8689C26.7186 51.3987 26.5576 51.5549 26.5591 51.8989C26.4226 51.9187 26.2827 51.9716 26.1432 51.9565C26.0952 51.9514 26.0928 51.8078 26.0838 51.7943C25.9454 51.5819 25.9605 51.912 25.9341 51.931C25.7827 52.0326 25.6241 52.027 25.473 52.0437C25.337 52.0589 25.2072 52.0899 25.083 52.2261C25.0736 52.2365 25.1127 52.5719 24.9885 52.3431C24.9809 52.3272 25.0566 52.1594 24.9108 52.1713C24.764 52.1834 24.4711 52.0427 24.2912 52.2202C24.2482 52.2631 24.1521 52.5489 24.0317 52.3458C24.0158 52.3182 24.0207 52.2206 23.9967 52.1689C23.9199 52.0041 23.9177 52.3464 23.821 52.0643C23.7245 51.7821 23.568 51.5777 23.3852 51.7883C23.3792 51.7944 23.3482 52.0667 23.2848 52.0656C23.1841 52.0638 23.0407 52.0132 22.9364 52.0179C22.8868 52.0202 22.9231 52.1869 22.9145 52.1902C22.577 52.2925 22.3326 52.1433 21.9754 52.0687C21.9105 52.0548 21.7096 52.2762 21.5901 52.0888C21.4608 51.8834 21.6479 51.0712 21.3288 51.2468C21.2654 51.2806 21.1781 51.5424 21.0784 51.7366C20.9828 51.9418 20.8448 52.0651 20.7836 51.7705C20.3162 51.8121 20.0666 51.3908 19.6095 51.3109C19.5892 51.3075 19.3694 51.5098 19.3303 51.4767C19.2738 51.428 19.3237 51.2949 19.2888 51.2569C19.1452 51.095 18.9214 51.0563 18.7787 50.9038C18.7247 50.8462 18.8397 50.7605 18.7765 50.6921C18.7137 50.624 18.542 50.7175 18.5108 50.5659C18.4879 50.4513 18.6773 50.1092 18.611 49.9885C18.429 50.1819 18.3461 50.2047 18.2488 50.1918L18.257 50.2004C18.2194 50.1897 18.1805 50.1718 18.1312 50.1524C18.0982 50.1394 18.0113 50.2414 17.99 50.2388C17.899 50.2267 17.9577 50.1199 17.8657 50.1096C17.8434 50.1067 17.7339 50.1724 17.7091 50.1729C17.4897 50.1751 17.6645 49.884 17.7007 49.842C17.828 49.6673 17.6588 49.6929 17.6973 49.5905C17.7377 49.491 17.8669 49.5614 17.8763 49.4631C17.8953 49.2788 17.8199 49.0866 17.7655 48.9159C17.7605 48.9004 17.7558 48.8851 17.7512 48.87C17.7287 48.798 17.5836 48.9012 17.5766 48.8921C17.4887 48.7634 17.5974 48.5413 17.2525 48.6027C18.0048 48.1405 17.1416 48.5518 17.1963 48.3012C17.2007 48.2817 17.5359 48.0339 17.6297 48.0703C17.7244 48.1089 17.6658 48.2735 17.795 48.3294C17.8251 48.3394 18.2429 48.3304 18.2729 48.3447C18.5053 48.437 17.9238 48.66 17.8946 48.6782C17.7074 48.7961 17.7824 48.8468 17.885 48.8761C17.9574 48.8965 18.0433 48.9054 18.0599 48.9172C18.2431 49.0467 18.2096 49.2141 18.3486 49.3054C18.439 49.3647 18.8147 49.2086 18.826 49.2637C18.8559 49.426 18.4256 49.8085 18.9164 49.6443C18.9517 49.6299 19.0145 49.5834 19.0721 49.5415L18.9491 49.4119C19.0484 49.3232 19.142 49.2608 19.0864 49.5181C19.082 49.5438 18.9724 49.8778 19.17 49.786C19.1949 49.7744 19.283 49.6795 19.3003 49.6808C19.4148 49.6914 19.3876 49.8072 19.4903 49.8347C19.5929 49.8622 19.7222 49.8803 19.7672 49.9782C19.7941 50.0368 19.6948 50.2691 19.6793 50.3331C19.6336 50.5169 19.875 50.353 19.7856 50.5443C19.6999 50.7395 19.4226 50.9233 19.4568 51.1176C19.6634 50.8522 19.8795 50.5828 20.0869 50.3157C20.2831 50.4768 20.4259 50.6879 20.6336 50.7559C20.6588 50.7636 20.7014 50.5861 20.728 50.589C20.8351 50.5995 20.8881 50.7489 21.0074 50.7191C21.0607 50.7045 21.1218 50.635 21.1747 50.5704C21.2385 50.5282 21.3006 50.4893 21.3602 50.4739C21.4203 50.8642 21.646 50.7473 21.7995 50.7887C21.8539 50.8031 21.8461 50.9056 21.8841 50.9406C22.0284 51.0697 21.9698 50.7273 22.0115 50.6752C22.1872 50.4513 22.1862 51.2214 22.3971 51.2039C22.4091 51.2034 22.542 50.7931 22.5592 50.7673C22.6724 50.5998 22.5792 50.91 22.652 50.9395C22.7854 50.9931 22.8816 51.089 23.0336 50.9633C23.0786 50.9261 23.1736 50.6662 23.271 50.8589C23.2838 50.8841 23.2848 51.0199 23.2946 51.0273C23.4726 51.1497 23.4503 50.7236 23.5328 50.5732C23.6152 50.4227 23.7831 50.7031 23.8218 50.7845C23.921 50.9954 23.7701 50.8835 23.7681 50.9051C23.74 51.1646 23.8452 51.1113 23.931 51.1245C23.9835 51.5392 24.1025 51.5016 24.0199 51.1363C24.0109 51.0964 23.9494 51.1419 23.931 51.1245C23.9649 50.7093 24.077 50.6448 24.2642 51.0075C24.3519 51.1771 24.3169 51.3936 24.5104 51.2898C24.5973 51.2425 24.5211 50.9629 24.5882 50.8735C24.7386 50.67 25.0145 50.8938 25.1903 50.814C25.2018 50.8087 25.2079 50.7996 25.2104 50.7882C25.2232 50.7371 25.1633 50.6401 25.1994 50.6193C25.3164 50.5511 25.4528 50.6425 25.5659 50.5554C25.576 50.5473 25.5124 50.3926 25.551 50.3819C25.8413 50.2972 26.1205 50.3392 26.4241 50.2632C26.5711 50.2267 26.8052 50.0679 26.9573 50.042C27.2208 49.9974 27.6078 50.1245 27.804 49.9934C27.9308 49.9089 27.8442 49.7645 27.8639 49.6378C27.8988 49.3938 28.2314 49.6824 28.282 49.7268C28.2839 49.7283 28.1817 49.8105 28.275 49.8646C28.3765 50.0141 28.2812 49.7279 28.282 49.7268C28.3143 49.7566 28.5588 49.6957 28.5911 49.6464C28.6087 49.6199 28.5325 49.4828 28.5426 49.4717C28.7841 49.2131 29.0388 49.0416 29.3412 48.9493C29.3475 48.9492 29.4287 49.1042 29.4426 49.1021C29.6406 49.0754 29.6259 48.8302 29.6683 48.6474C29.711 48.4638 29.8132 48.4393 30.0649 48.6228C30.1241 48.5286 30.3226 48.5329 30.4429 48.5308C30.5635 48.5286 30.3354 48.275 30.3357 48.2655C30.3408 47.9579 30.5583 48.0062 30.7179 47.8443C30.7489 47.8129 30.7804 47.7595 30.8062 47.7C30.8574 47.5942 30.9028 47.4733 30.9291 47.3891C30.9642 47.2746 31.069 47.2545 31.0801 47.1352C31.0817 47.1191 30.9436 47.0552 30.9409 47.0484C30.845 46.8535 31.1358 47.0895 31.2056 47.101C31.4592 47.1427 31.6004 47.1543 31.5799 46.9594C31.5758 46.9137 31.1606 46.5631 31.1644 46.4907C31.1708 46.3962 31.3232 46.5161 31.3255 46.4142C31.3258 46.4055 31.2212 46.3513 31.2522 46.3044C31.3942 46.0864 31.587 45.8615 31.7013 45.6075C31.7173 45.5732 31.5284 45.5326 31.5487 45.4817C31.644 45.2422 31.7759 44.9894 31.9671 44.7971C32.0147 44.7502 32.115 44.8431 32.1559 44.8478C32.4042 44.8753 32.1498 44.6173 32.1525 44.5968C32.2122 44.0991 32.6499 43.9045 32.7376 43.3967C32.7415 43.3692 32.507 43.0186 32.8297 43.0763C32.8513 43.0799 33.1796 43.1424 33.0202 42.9709C33.0102 42.9601 32.8366 42.9367 32.8971 42.8547C32.9577 42.7725 32.9333 42.5775 33.1588 42.5376C33.2298 42.525 33.5619 42.5812 33.3963 42.347C33.3839 42.3321 32.9693 41.88 33.3556 42.0035C33.4191 42.024 33.7848 42.2344 33.6689 41.9937C33.6462 41.9474 33.5375 41.9506 33.5236 41.8529C33.5024 41.7038 33.6752 41.6175 33.591 41.3985C33.5903 41.3961 33.5896 41.3937 33.5889 41.3912C33.5743 41.3487 33.3975 41.0806 33.6412 41.0985C33.6788 41.1022 33.7833 41.2013 33.8249 41.1633C34.0264 40.9788 34.0874 40.7187 34.3066 40.5745C34.3826 40.5255 34.5446 40.6911 34.644 40.656C34.7442 40.6198 34.8905 40.517 34.8591 40.384C34.8276 40.2508 34.4778 40.1138 34.5333 39.9895C34.7781 39.4459 35.2866 39.1414 35.6387 38.7342C35.6908 38.674 35.548 38.6468 35.6167 38.5532C35.8755 38.202 36.1927 37.5701 36.5725 37.4781C36.8819 37.3987 36.8696 37.7392 37.043 37.6285C37.1279 37.5709 36.7953 37.2976 36.7865 37.2852C36.7573 37.1968 36.7736 37.1756 36.7775 37.2404C36.7803 37.2752 36.7747 37.3362 36.7764 37.4736C36.7832 37.6115 36.7816 37.9017 37.0191 38.2736C37.2296 38.5511 36.8673 38.4002 37.0873 38.6378C37.4427 38.9666 37.7395 38.9972 37.8631 39.0098C38.0169 39.019 38.0463 38.9956 38.0781 38.9904C38.2836 38.9721 38.4222 38.9284 38.5261 38.8907C38.6057 38.8611 38.6645 38.8331 38.7125 38.8084C38.8053 38.7595 38.8397 38.7353 38.878 38.71C38.9379 38.669 38.962 38.6491 38.9795 38.6365C39.0344 38.5988 39.1014 38.712 39.0839 38.7154C39.0082 38.7565 38.8591 38.8279 38.664 38.844C38.6461 38.8456 38.6035 38.6622 38.514 38.7386C38.3665 38.8648 38.1042 38.9368 37.9882 39.1847C37.954 39.2582 38.1305 39.5009 37.874 39.432C37.8298 39.4199 37.7073 39.2034 37.6775 39.3261C37.6655 39.3566 37.656 39.404 37.6478 39.475C37.6535 39.5405 37.4511 40.1298 37.1719 39.9481C37.0978 39.9028 36.8753 39.6759 36.8108 39.7475C36.8012 39.7587 36.904 39.8924 36.8348 39.9334C36.5817 40.0769 36.3192 40.1265 36.0798 40.2286C36.018 40.2555 36.149 40.3979 36.0542 40.4329C35.7857 40.5307 35.4555 40.5372 35.203 40.515C35.1121 40.5062 35.1572 40.3624 35.1489 40.3484C35.019 40.1187 34.995 40.4514 34.9617 40.4742C34.7514 40.6112 34.5899 40.4699 34.3974 40.5252C34.3446 40.54 34.3939 40.6934 34.3842 40.7081C34.2834 40.852 34.3456 40.5657 34.2757 40.5395C34.0835 40.4647 33.8656 40.4894 33.6832 40.5179C33.6146 40.5287 33.7007 40.7065 33.6387 40.714C33.2655 40.7622 32.8901 40.7558 32.5404 40.664C32.4741 40.6464 32.5123 40.5056 32.4978 40.474C32.3979 40.2529 32.2665 40.5605 32.2363 40.5901C32.0963 40.7256 32.0381 40.603 31.9117 40.6285C31.2971 40.7547 30.5491 40.6846 29.9842 40.6501C29.2489 40.606 28.6787 40.4967 27.9993 40.5796C27.9561 40.5848 28.0132 40.7671 27.9764 40.7739C27.5028 40.8538 27.0313 40.8268 26.5779 40.9417C26.541 40.9508 26.6183 41.1183 26.5603 41.1387C26.4404 41.182 26.2853 41.1953 26.1548 41.1593C26.0911 41.1421 26.1469 40.9798 26.0828 40.9657C25.9327 40.9327 25.7777 40.9474 25.6417 41.0026C25.584 41.0265 25.7086 41.1859 25.6318 41.203C25.1046 41.3261 24.6346 41.4807 24.0859 41.4339C24.0488 41.4306 23.8899 41.0985 23.8445 41.1917C23.8763 41.2885 23.9203 41.3997 23.9579 41.5018C23.6025 41.6762 23.2658 41.819 22.9618 41.9838C22.535 42.237 22.1354 42.4211 21.7816 42.6087C21.7484 42.6263 21.8994 42.7645 21.8359 42.7992C21.4701 42.9994 21.1927 43.2199 20.8807 43.2137C20.8505 43.2131 20.651 42.9345 20.624 43.0225C20.6175 43.039 20.5753 43.1374 20.6211 43.198C20.6281 43.2069 20.7459 43.3144 20.7395 43.3276C20.7118 43.3783 20.7649 43.325 20.7706 43.1749C20.7259 43.2661 20.6767 43.3553 20.6227 43.4429C20.5981 43.4828 20.4413 43.4022 20.4222 43.431C20.287 43.6419 20.3836 43.8986 20.2182 44.1033C20.1074 44.2454 19.8169 44.1794 19.5255 44.2603C19.4842 44.2718 19.4766 44.3787 19.3086 44.3845C18.8858 44.3987 18.4233 44.3383 17.9726 44.3593C17.8753 44.367 17.9798 44.5263 17.7453 44.4321C17.7295 44.4275 17.6522 44.3012 17.5734 44.2657C17.5188 44.2416 17.3471 44.2815 17.2776 44.2314C17.2082 44.1812 17.3527 44.1312 17.2735 44.0458C17.1938 43.959 16.9966 43.9869 16.9849 43.8124ZM30.986 48.4911C31.1677 48.5319 30.7201 48.1348 30.7717 48.2932C30.7747 48.3013 30.9771 48.4891 30.986 48.4911ZM20.2147 51.0743C20.1969 51.3628 20.4298 51.041 20.452 50.8267C20.4848 50.6169 20.225 50.989 20.2147 51.0743ZM19.0993 50.4858C19.0743 50.7431 19.652 50.1215 19.4232 50.1467C19.4101 50.1479 19.1009 50.471 19.0993 50.4858ZM19.4679 43.8385C19.4598 43.8389 19.4452 43.914 19.453 43.9166C19.6389 43.9713 19.6673 43.8265 19.4679 43.8385ZM18.1089 49.6834C18.0263 49.7772 18.2063 49.8295 18.3044 49.7117C18.3853 49.6223 18.2136 49.5727 18.1089 49.6834ZM34.0306 44.2714C34.0393 44.2739 34.0728 44.2243 34.0271 44.203C33.8798 44.1347 33.8842 44.2292 34.0306 44.2714ZM16.9815 47.5716C17.261 47.8691 16.8015 48.4407 16.6626 48.1667C16.6308 48.1138 16.9111 48.1019 16.9042 48.0038C16.8747 47.8088 16.5164 48.0801 16.549 47.8076C16.5498 47.7526 16.9631 47.549 16.9826 47.5713C16.9823 47.5714 16.9819 47.5715 16.9815 47.5716ZM31.5616 48.9246C31.569 48.9284 31.6282 48.8705 31.6233 48.8639C31.5054 48.7095 31.3908 48.8206 31.5616 48.9246ZM36.0374 41.4625C36.0533 41.469 36.1765 41.3262 36.1681 41.3117C35.976 41.0477 35.7226 41.3407 36.0374 41.4625ZM26.8309 51.8572C26.7907 52.0651 26.6879 52.1144 26.5596 51.899C26.6506 51.8895 26.7396 51.8688 26.8309 51.8572Z" fill="#294D29"/>
</svg>
